<?xml version="1.0" encoding="iso-8859-1"?>
<!-- Generator: Adobe Illustrator 19.0.0, SVG Export Plug-In . SVG Version: 6.00 Build 0)  -->
<svg version="1.1" id="Capa_1" fill="#0098EE" xmlns="http://www.w3.org/2000/svg" xmlns:xlink="http://www.w3.org/1999/xlink" x="0px" y="0px"
	 viewBox="0 0 449.304 449.304" style="enable-background:new 0 0 449.304 449.304;" xml:space="preserve">
<g>
	<g>
		<path d="M361.36,47.896C266.128-27.88,127.376-12.008,51.601,83.224C-18.032,171.288-10.352,297.752,69.52,376.6
			c-6.656,10.24-14.848,19.456-24.576,27.648c-10.752,9.216-11.264,25.6-2.048,36.352c4.608,5.12,11.264,8.192,18.432,8.704h3.584
			c24.576,0,60.416-5.12,88.064-19.968c114.688,39.936,240.128-20.992,280.064-135.68C463.76,204.056,435.089,105.752,361.36,47.896
			z M290.704,237.336h-51.2v51.2h-30.72v-51.2h-51.2v-30.72h51.2v-51.2h30.72v51.2h51.2V237.336z"/>
	</g>
</g>
<g>
</g>
<g>
</g>
<g>
</g>
<g>
</g>
<g>
</g>
<g>
</g>
<g>
</g>
<g>
</g>
<g>
</g>
<g>
</g>
<g>
</g>
<g>
</g>
<g>
</g>
<g>
</g>
<g>
</g>
</svg>
