<svg width="21" height="22" viewBox="0 0 21 22" fill="none" xmlns="http://www.w3.org/2000/svg">
<path fill-rule="evenodd" clip-rule="evenodd" d="M4.70711 7.29291C5.09763 7.68343 5.09763 8.31659 4.70711 8.70712L3.41421 10H12C12.5523 10 13 10.4477 13 11C13 11.5523 12.5523 12 12 12H3.41421L4.70711 13.2929C5.09763 13.6834 5.09763 14.3166 4.70711 14.7071C4.31658 15.0976 3.68342 15.0976 3.29289 14.7071L0.292893 11.7071C-0.0976311 11.3166 -0.0976311 10.6834 0.292893 10.2929L3.29289 7.29291C3.68342 6.90238 4.31658 6.90238 4.70711 7.29291Z" fill="#0098EE"/>
<path fill-rule="evenodd" clip-rule="evenodd" d="M12.7507 0.777994C12.7744 0.781944 12.7981 0.785908 12.822 0.789884L15.2134 1.18846C16.3573 1.37907 17.3068 1.5373 18.0544 1.75985C18.8423 1.99443 19.5236 2.33205 20.0521 2.95589C20.5806 3.57973 20.8016 4.30727 20.9034 5.12303C21.0001 5.89699 21 6.8596 21 8.01927V13.9808C21 15.1404 21.0001 16.103 20.9034 16.877C20.8016 17.6927 20.5806 18.4203 20.0521 19.0441C19.5236 19.668 18.8423 20.0056 18.0544 20.2402C17.3068 20.4627 16.3573 20.621 15.2134 20.8116L12.7507 21.222C11.7306 21.3921 10.8613 21.537 10.161 21.5539C9.41658 21.5719 8.68102 21.4535 8.06088 20.9282C7.44073 20.4028 7.20297 19.6967 7.09833 18.9595C6.9999 18.266 6.99994 17.3846 7 16.3505L7 16.066C7 15.5137 7.44772 15.066 8 15.066C8.55229 15.066 9 15.5137 9 16.066V16.2782C9 17.4047 9.00239 18.1423 9.07848 18.6784C9.15065 19.1869 9.26652 19.3283 9.35363 19.4021C9.44073 19.4759 9.59931 19.5669 10.1127 19.5545C10.6541 19.5415 11.382 19.4225 12.4932 19.2374L14.822 18.8492C16.0446 18.6455 16.8699 18.5061 17.4837 18.3233C18.0708 18.1485 18.3436 17.9668 18.526 17.7514C18.7085 17.536 18.8429 17.237 18.9188 16.6292C18.9982 15.9937 19 15.1567 19 13.9172V8.08277C19 6.84334 18.9982 6.00632 18.9188 5.37081C18.8429 4.763 18.7085 4.46404 18.526 4.24864C18.3436 4.03325 18.0708 3.85149 17.4837 3.67671C16.8699 3.49396 16.0446 3.35457 14.822 3.1508L12.4932 2.76267C11.382 2.57748 10.6541 2.45857 10.1127 2.44549C9.59931 2.43309 9.44073 2.52412 9.35363 2.59791C9.26652 2.6717 9.15065 2.81316 9.07848 3.32162C9.00239 3.85775 9 4.59535 9 5.72185V6.13195C9 6.68423 8.55229 7.13195 8 7.13195C7.44772 7.13195 7 6.68423 7 6.13195V5.72185C7 5.69767 7 5.67356 7 5.64954C6.99994 4.61542 6.9999 3.73405 7.09833 3.04056C7.20297 2.30329 7.44073 1.59721 8.06088 1.07187C8.68102 0.546532 9.41658 0.428088 10.161 0.446074C10.8612 0.462991 11.7306 0.607933 12.7507 0.777994Z" fill="#0098EE"/>
</svg>
