<svg width="24" height="24" viewBox="0 0 24 24" fill="none" xmlns="http://www.w3.org/2000/svg">
<path fill-rule="evenodd" clip-rule="evenodd" d="M8.72048 6.31551L8.71865 6.31663L8.71677 6.31766L8.70507 6.32366C8.69088 6.3308 8.67215 6.33991 8.63794 6.3565L6.79946 7.24838C6.53028 7.37893 6.27661 7.50195 6.07446 7.629C5.84905 7.77067 5.628 7.95243 5.46833 8.22898C5.30867 8.50552 5.26179 8.78784 5.2518 9.05388C5.24285 9.29248 5.26314 9.57367 5.28468 9.87206L5.43153 11.9102C5.43426 11.9481 5.43574 11.9689 5.43665 11.9847L5.4373 11.9979L5.43735 11.9997L5.4373 12.0021L5.43665 12.0153C5.43574 12.0311 5.43426 12.0519 5.43153 12.0898L5.28468 14.1279C5.26314 14.4263 5.24285 14.7075 5.2518 14.9461C5.26179 15.2122 5.30867 15.4945 5.46833 15.771C5.628 16.0476 5.84905 16.2293 6.07446 16.371C6.2766 16.4981 6.53025 16.6211 6.79942 16.7516L8.63794 17.6435C8.67215 17.6601 8.69088 17.6692 8.70507 17.6763L8.71677 17.6824L8.71889 17.6835L8.72048 17.6845L8.73153 17.6916C8.7448 17.7003 8.76205 17.712 8.79353 17.7333L10.4852 18.8796C10.7328 19.0474 10.9662 19.2056 11.1773 19.3171C11.4127 19.4415 11.6806 19.5421 11.9999 19.5421C12.3193 19.5421 12.5872 19.4415 12.8226 19.3171C13.0337 19.2056 13.2671 19.0474 13.5147 18.8796L15.2064 17.7333C15.2378 17.712 15.2551 17.7003 15.2684 17.6916L15.2794 17.6845L15.2815 17.6832L15.2831 17.6824L15.2948 17.6763C15.309 17.6692 15.3277 17.6601 15.3619 17.6435L17.2004 16.7516C17.4696 16.6211 17.7233 16.498 17.9254 16.371C18.1508 16.2293 18.3719 16.0476 18.5316 15.771C18.6912 15.4945 18.7381 15.2122 18.7481 14.9461C18.757 14.7075 18.7367 14.4263 18.7152 14.1279L18.5684 12.0898C18.5656 12.0519 18.5641 12.0311 18.5632 12.0153L18.5626 12.0021L18.5625 11.9997L18.5626 11.9979L18.5632 11.9847C18.5641 11.9689 18.5656 11.9481 18.5684 11.9102L18.7152 9.87208C18.7367 9.57368 18.757 9.29248 18.7481 9.05388C18.7381 8.78784 18.6912 8.50552 18.5316 8.22898C18.3719 7.95243 18.1508 7.77067 17.9254 7.629C17.7233 7.50195 17.4696 7.37893 17.2004 7.24839L15.3619 6.3565C15.3277 6.33991 15.309 6.3308 15.2948 6.32366L15.2831 6.31766L15.281 6.31649L15.2794 6.31551L15.2684 6.30839C15.2551 6.29967 15.2378 6.288 15.2064 6.26667L13.5147 5.12044C13.2671 4.95259 13.0337 4.79442 12.8226 4.68288C12.5872 4.55851 12.3193 4.45795 11.9999 4.45795C11.6806 4.45795 11.4127 4.55851 11.1773 4.68288C10.9662 4.79442 10.7328 4.9526 10.4852 5.12045L8.79353 6.26667C8.76206 6.288 8.7448 6.29967 8.73153 6.30839L8.72048 6.31551ZM11.9999 15C13.6568 15 14.9999 13.6569 14.9999 12C14.9999 10.3431 13.6568 9 11.9999 9C10.3431 9 8.99995 10.3431 8.99995 12C8.99995 13.6569 10.3431 15 11.9999 15Z" fill="#0098EE"/>
</svg>
