<svg width="25" height="24" viewBox="0 0 25 24" fill="none" xmlns="http://www.w3.org/2000/svg">
<path fill-rule="evenodd" clip-rule="evenodd" d="M6.62186 9.96322C4.52198 11.7565 4.27347 14.9126 6.06679 17.0125C7.8601 19.1123 11.0162 19.3609 13.116 17.5675L18.4391 13.0216C18.859 12.663 19.4902 12.7127 19.8489 13.1326C20.2076 13.5526 20.1579 14.1838 19.7379 14.5425L14.4149 19.0884C11.475 21.5991 7.05657 21.2511 4.54592 18.3113C2.03528 15.3715 2.3832 10.953 5.32302 8.44236L11.4065 3.24702C13.5064 1.4537 16.6624 1.70221 18.4557 3.80209C20.249 5.90196 20.0005 9.05802 17.9007 10.8513L11.8172 16.0467C10.5573 17.1227 8.66364 16.9736 7.58765 15.7136C6.51166 14.4537 6.66077 12.5601 7.92069 11.4841L10.202 9.53583C10.622 9.17717 11.2532 9.22687 11.6118 9.64685C11.9705 10.0668 11.9208 10.698 11.5008 11.0567L9.21953 13.005C8.79955 13.3636 8.74985 13.9948 9.10852 14.4148C9.46718 14.8348 10.0984 14.8845 10.5184 14.5258L16.6018 9.33047C17.8617 8.25448 18.0109 6.36085 16.9349 5.10092C15.8589 3.841 13.9652 3.69189 12.7053 4.76788L6.62186 9.96322Z" fill="#0098EE"/>
</svg>
