<svg width="21" height="20" viewBox="0 0 21 20" fill="none" xmlns="http://www.w3.org/2000/svg">
<path d="M0 7.75C0 3.46979 3.46979 0 7.75 0C12.0302 0 15.5 3.46979 15.5 7.75C15.5 12.0302 12.0302 15.5 7.75 15.5C3.46979 15.5 0 12.0302 0 7.75Z" fill="#0098EE"/>
<path d="M14.5714 13.368C14.9145 13.0249 15.4544 12.9776 15.8519 13.2559L19.7036 15.9521C20.5951 16.5761 20.707 17.8537 19.9375 18.6231L19.6231 18.9375C18.8537 19.707 17.5761 19.5951 16.9521 18.7036L14.2559 14.8519C13.9776 14.4544 14.0249 13.9145 14.368 13.5714L14.5714 13.368Z" fill="#0098EE"/>
</svg>
