<svg width="17" height="15" viewBox="0 0 17 15" fill="none" xmlns="http://www.w3.org/2000/svg">
<path d="M15.3566 0.0231623C15.5238 -0.00637688 16.0171 -0.074801 16.3563 0.341112C16.6954 0.757027 16.5291 1.22644 16.4665 1.38433C16.3935 1.5684 16.2705 1.7853 16.1548 1.98935L10.325 12.2772C9.89872 13.0295 9.5377 13.6667 9.19912 14.1029C8.85982 14.5401 8.37235 15.0011 7.65925 14.9481C6.94615 14.8951 6.53218 14.3671 6.26124 13.8846C5.99087 13.4031 5.72801 12.7195 5.41764 11.9125L4.69389 10.0307C4.62138 9.84217 4.58053 9.73721 4.54448 9.66042C4.52842 9.62623 4.51803 9.60808 4.51226 9.59891C4.50953 9.59455 4.50723 9.59143 4.50723 9.59143L4.50642 9.59042L4.50549 9.58951L4.5022 9.5867L4.49854 9.58379C4.48996 9.57716 4.4729 9.56507 4.44042 9.5458C4.36745 9.50251 4.26692 9.45175 4.08623 9.36141L3.09813 8.86736C2.21607 8.42637 1.48086 8.0588 0.978955 7.71272C0.492554 7.37733 -0.0539295 6.87543 0.00427977 6.10461C0.062489 5.33379 0.678148 4.91965 1.2094 4.66111C1.75759 4.39433 2.53965 4.14134 3.47793 3.83782L14.7012 0.206769C14.9243 0.134463 15.1616 0.0576032 15.3566 0.0231623Z" fill="#0098EE"/>
</svg>
